<svg width="76" height="76" viewBox="0 0 76 76" fill="none" xmlns="http://www.w3.org/2000/svg">
<path d="M56.495 19.3902C54.5965 19.3902 52.8536 18.3009 51.9821 16.6203L49.7412 12.1074C48.3095 9.27517 44.5748 6.94092 41.4002 6.94092H34.2729C31.0672 6.94092 27.3324 9.27517 25.9008 12.1074L23.6599 16.6203C22.7884 18.3009 21.0455 19.3902 19.147 19.3902C12.3932 19.3902 7.04004 25.0858 7.47576 31.8084L9.09418 57.5163C9.46766 63.9277 12.9223 69.1875 21.5124 69.1875H54.1296C62.7196 69.1875 66.1432 63.9277 66.5478 57.5163L68.1662 31.8084C68.6019 25.0858 63.2487 19.3902 56.495 19.3902ZM33.1525 23.2807H42.4895C43.7655 23.2807 44.8237 24.3388 44.8237 25.6149C44.8237 26.891 43.7655 27.9492 42.4895 27.9492H33.1525C31.8764 27.9492 30.8182 26.891 30.8182 25.6149C30.8182 24.3388 31.8764 23.2807 33.1525 23.2807ZM37.821 57.1117C32.0321 57.1117 27.3013 52.4121 27.3013 46.592C27.3013 40.772 32.0009 36.0723 37.821 36.0723C43.6411 36.0723 48.3407 40.772 48.3407 46.592C48.3407 52.4121 43.6099 57.1117 37.821 57.1117Z" fill="white"/>
</svg>
