<svg width="57" height="57" viewBox="0 0 57 57" fill="none" xmlns="http://www.w3.org/2000/svg">
<path d="M34.4137 46.9537L14.0837 36.7887C4.96374 32.2287 4.96374 24.7712 14.0837 20.2112L34.4137 10.0462C48.0937 3.20623 53.675 8.81123 46.835 22.4675L44.7687 26.5762C44.175 27.7875 44.175 29.1887 44.7687 30.4L46.835 34.5325C53.675 48.1887 48.07 53.7937 34.4137 46.9537Z" fill="#0EDD00"/>
<path d="M21.7551 26.7188H34.5801C35.5538 26.7188 36.3613 27.5263 36.3613 28.5C36.3613 29.4737 35.5538 30.2812 34.5801 30.2812H21.7551C20.7813 30.2812 19.9738 29.4737 19.9738 28.5C19.9738 27.5263 20.7813 26.7188 21.7551 26.7188Z" fill="white"/>
</svg>
