<svg width="57" height="57" viewBox="0 0 57 57" fill="none" xmlns="http://www.w3.org/2000/svg">
<path d="M14.0837 20.2113L34.4137 10.0463C48.07 3.20626 53.675 8.81126 46.835 22.4675L44.7687 26.6C44.175 27.8113 44.175 29.2125 44.7687 30.4238L46.835 34.5325C53.675 48.1888 48.0937 53.7938 34.4137 46.9538L14.0837 36.7888C4.96374 32.2288 4.96374 24.7713 14.0837 20.2113ZM21.755 30.2813H34.58C35.5537 30.2813 36.3612 29.4738 36.3612 28.5C36.3612 27.5263 35.5537 26.7188 34.58 26.7188H21.755C20.7812 26.7188 19.9737 27.5263 19.9737 28.5C19.9737 29.4738 20.7812 30.2813 21.755 30.2813Z" fill="#0BC200"/>
</svg>
