<svg width="68" height="68" viewBox="0 0 68 68" fill="none" xmlns="http://www.w3.org/2000/svg">
<path d="M58.0833 28.8716H49.8949C43.1799 28.8716 37.7116 23.4033 37.7116 16.6883V8.49996C37.7116 6.94163 36.4366 5.66663 34.8783 5.66663H22.8649C14.1383 5.66663 7.08325 11.3333 7.08325 21.4483V46.5516C7.08325 56.6666 14.1383 62.3333 22.8649 62.3333H45.1349C53.8616 62.3333 60.9166 56.6666 60.9166 46.5516V31.705C60.9166 30.1466 59.6416 28.8716 58.0833 28.8716ZM34.7933 44.71L29.1266 50.3766C28.9283 50.575 28.6733 50.745 28.4183 50.83C28.1633 50.9433 27.9083 51 27.6249 51C27.3416 51 27.0866 50.9433 26.8316 50.83C26.6049 50.745 26.3783 50.575 26.2083 50.405C26.1799 50.3766 26.1516 50.3766 26.1516 50.3483L20.4849 44.6816C19.6633 43.86 19.6633 42.5 20.4849 41.6783C21.3066 40.8566 22.6666 40.8566 23.4883 41.6783L25.4999 43.7466V31.875C25.4999 30.7133 26.4633 29.75 27.6249 29.75C28.7866 29.75 29.7499 30.7133 29.7499 31.875V43.7466L31.7899 41.7066C32.6116 40.885 33.9716 40.885 34.7933 41.7066C35.6149 42.5283 35.6149 43.8883 34.7933 44.71Z" fill="white"/>
<path d="M49.3849 24.9617C52.0766 24.99 55.8166 24.99 59.0183 24.99C60.6333 24.99 61.4833 23.0917 60.3499 21.9584C56.2699 17.85 48.9599 10.455 44.7666 6.26169C43.6049 5.10002 41.5933 5.89335 41.5933 7.50835V17.3967C41.5933 21.5334 45.1066 24.9617 49.3849 24.9617Z" fill="white"/>
</svg>
